REM DIRINDEX 1\2,1\3,1\4,1\5
REM DIRNAME cjc087,folder01,folder02,folder03,folder04
TITLE ""
FILE "Chapter_08.mp3" MP3
  TRACK 01 AUDIO
    TITLE "0:"
    INDEX 01 00:00:00
  TRACK 02 AUDIO
    TITLE "5:cjc087_2272"
    INDEX 01 00:00:09
  TRACK 03 AUDIO
    TITLE "0:"
    INDEX 01 00:02:00
  TRACK 04 AUDIO
    TITLE "5:cjc087_2273"
    INDEX 01 00:03:39
  TRACK 05 AUDIO
    TITLE "0:"
    INDEX 01 00:05:36
  TRACK 06 AUDIO
    TITLE "4:cjc087_2274"
    INDEX 01 00:06:33
  TRACK 07 AUDIO
    TITLE "3:cjc087_2275"
    INDEX 01 00:09:10
  TRACK 08 AUDIO
    TITLE "0:"
    INDEX 01 00:11:40
  TRACK 09 AUDIO
    TITLE "4:cjc087_2276"
    INDEX 01 00:12:40
  TRACK 10 AUDIO
    TITLE "3:cjc087_2277"
    INDEX 01 00:14:64
  TRACK 11 AUDIO
    TITLE "0:"
    INDEX 01 00:17:57
  TRACK 12 AUDIO
    TITLE "4:cjc087_2278"
    INDEX 01 00:18:56
  TRACK 13 AUDIO
    TITLE "3:cjc087_2279"
    INDEX 01 00:20:59
  TRACK 14 AUDIO
    TITLE "0:"
    INDEX 01 00:23:03
  TRACK 15 AUDIO
    TITLE "4:cjc087_2280"
    INDEX 01 00:23:73
  TRACK 16 AUDIO
    TITLE "3:cjc087_2281"
    INDEX 01 00:26:07
  TRACK 17 AUDIO
    TITLE "0:"
    INDEX 01 00:28:55
  TRACK 18 AUDIO
    TITLE "4:cjc087_2282"
    INDEX 01 00:29:52
  TRACK 19 AUDIO
    TITLE "3:cjc087_2283"
    INDEX 01 00:31:45
  TRACK 20 AUDIO
    TITLE "0:"
    INDEX 01 00:33:54
  TRACK 21 AUDIO
    TITLE "4:cjc087_2284"
    INDEX 01 00:34:51
  TRACK 22 AUDIO
    TITLE "3:cjc087_2285"
    INDEX 01 00:36:70
  TRACK 23 AUDIO
    TITLE "0:"
    INDEX 01 00:39:31
  TRACK 24 AUDIO
    TITLE "2:cjc087_2286"
    INDEX 01 00:40:68
  TRACK 25 AUDIO
    TITLE "0:"
    INDEX 01 00:57:05
  TRACK 26 AUDIO
    TITLE "5:cjc087_2287"
    INDEX 01 00:58:40
  TRACK 27 AUDIO
    TITLE "0:"
    INDEX 01 01:00:53
  TRACK 28 AUDIO
    TITLE "4:cjc087_2288"
    INDEX 01 01:01:52
  TRACK 29 AUDIO
    TITLE "3:cjc087_2289"
    INDEX 01 01:03:49
  TRACK 30 AUDIO
    TITLE "0:"
    INDEX 01 01:05:69
  TRACK 31 AUDIO
    TITLE "4:cjc087_2290"
    INDEX 01 01:06:69
  TRACK 32 AUDIO
    TITLE "3:cjc087_2291"
    INDEX 01 01:09:24
  TRACK 33 AUDIO
    TITLE "0:"
    INDEX 01 01:12:09
  TRACK 34 AUDIO
    TITLE "4:cjc087_2292"
    INDEX 01 01:13:06
  TRACK 35 AUDIO
    TITLE "3:cjc087_2293"
    INDEX 01 01:15:03
  TRACK 36 AUDIO
    TITLE "0:"
    INDEX 01 01:17:18
  TRACK 37 AUDIO
    TITLE "4:cjc087_2294"
    INDEX 01 01:18:11
  TRACK 38 AUDIO
    TITLE "3:cjc087_2295"
    INDEX 01 01:20:71
  TRACK 39 AUDIO
    TITLE "0:"
    INDEX 01 01:23:18
  TRACK 40 AUDIO
    TITLE "4:cjc087_2296"
    INDEX 01 01:24:16
  TRACK 41 AUDIO
    TITLE "3:cjc087_2297"
    INDEX 01 01:25:58
  TRACK 42 AUDIO
    TITLE "0:"
    INDEX 01 01:27:69
  TRACK 43 AUDIO
    TITLE "4:cjc087_2298"
    INDEX 01 01:28:69
  TRACK 44 AUDIO
    TITLE "3:cjc087_2299"
    INDEX 01 01:31:55
  TRACK 45 AUDIO
    TITLE "0:"
    INDEX 01 01:34:44
  TRACK 46 AUDIO
    TITLE "5:cjc087_2300"
    INDEX 01 01:36:03
  TRACK 47 AUDIO
    TITLE "0:"
    INDEX 01 01:38:02
  TRACK 48 AUDIO
    TITLE "4:cjc087_2301"
    INDEX 01 01:39:00
  TRACK 49 AUDIO
    TITLE "3:cjc087_2302"
    INDEX 01 01:40:42
  TRACK 50 AUDIO
    TITLE "0:"
    INDEX 01 01:42:35
  TRACK 51 AUDIO
    TITLE "4:cjc087_2303"
    INDEX 01 01:43:35
  TRACK 52 AUDIO
    TITLE "3:cjc087_2304"
    INDEX 01 01:45:61
  TRACK 53 AUDIO
    TITLE "0:"
    INDEX 01 01:48:09
  TRACK 54 AUDIO
    TITLE "4:cjc087_2305"
    INDEX 01 01:49:06
  TRACK 55 AUDIO
    TITLE "3:cjc087_2306"
    INDEX 01 01:50:70
  TRACK 56 AUDIO
    TITLE "0:"
    INDEX 01 01:52:51
  TRACK 57 AUDIO
    TITLE "4:cjc087_2307"
    INDEX 01 01:53:51
  TRACK 58 AUDIO
    TITLE "3:cjc087_2308"
    INDEX 01 01:56:51
  TRACK 59 AUDIO
    TITLE "0:"
    INDEX 01 01:59:26
  TRACK 60 AUDIO
    TITLE "4:cjc087_2309"
    INDEX 01 02:00:25
  TRACK 61 AUDIO
    TITLE "3:cjc087_2310"
    INDEX 01 02:02:17
  TRACK 62 AUDIO
    TITLE "0:"
    INDEX 01 02:04:31
  TRACK 63 AUDIO
    TITLE "4:cjc087_2311"
    INDEX 01 02:05:31
  TRACK 64 AUDIO
    TITLE "3:cjc087_2312"
    INDEX 01 02:07:45
  TRACK 65 AUDIO
    TITLE "0:"
    INDEX 01 02:09:28
  TRACK 66 AUDIO
    TITLE "5:cjc087_2313"
    INDEX 01 02:10:63
  TRACK 67 AUDIO
    TITLE "0:"
    INDEX 01 02:12:70
  TRACK 68 AUDIO
    TITLE "4:cjc087_2314"
    INDEX 01 02:13:67
  TRACK 69 AUDIO
    TITLE "3:cjc087_2315"
    INDEX 01 02:16:66
  TRACK 70 AUDIO
    TITLE "0:"
    INDEX 01 02:20:11
  TRACK 71 AUDIO
    TITLE "4:cjc087_2316"
    INDEX 01 02:21:10
  TRACK 72 AUDIO
    TITLE "3:cjc087_2317"
    INDEX 01 02:22:70
  TRACK 73 AUDIO
    TITLE "0:"
    INDEX 01 02:25:06
  TRACK 74 AUDIO
    TITLE "4:cjc087_2318"
    INDEX 01 02:26:05
  TRACK 75 AUDIO
    TITLE "3:cjc087_2319"
    INDEX 01 02:28:22
  TRACK 76 AUDIO
    TITLE "0:"
    INDEX 01 02:31:18
  TRACK 77 AUDIO
    TITLE "4:cjc087_2320"
    INDEX 01 02:32:14
  TRACK 78 AUDIO
    TITLE "3:cjc087_2321"
    INDEX 01 02:34:01
  TRACK 79 AUDIO
    TITLE "0:"
    INDEX 01 02:35:71
  TRACK 80 AUDIO
    TITLE "4:cjc087_2322"
    INDEX 01 02:36:70
  TRACK 81 AUDIO
    TITLE "3:cjc087_2323"
    INDEX 01 02:39:06
  TRACK 82 AUDIO
    TITLE "0:"
    INDEX 01 02:41:46
  TRACK 83 AUDIO
    TITLE "4:cjc087_2324"
    INDEX 01 02:42:43
  TRACK 84 AUDIO
    TITLE "3:cjc087_2325"
    INDEX 01 02:44:58
  TRACK 85 AUDIO
    TITLE "0:"
    INDEX 01 02:47:37
  TRACK 86 AUDIO
    TITLE "5:cjc087_2326"
    INDEX 01 02:48:73
  TRACK 87 AUDIO
    TITLE "0:"
    INDEX 01 02:51:09
  TRACK 88 AUDIO
    TITLE "4:cjc087_2327"
    INDEX 01 02:52:07
  TRACK 89 AUDIO
    TITLE "3:cjc087_2328"
    INDEX 01 02:53:33
  TRACK 90 AUDIO
    TITLE "0:"
    INDEX 01 02:55:09
  TRACK 91 AUDIO
    TITLE "4:cjc087_2329"
    INDEX 01 02:56:06
  TRACK 92 AUDIO
    TITLE "3:cjc087_2330"
    INDEX 01 02:59:01
  TRACK 93 AUDIO
    TITLE "0:"
    INDEX 01 03:01:39
  TRACK 94 AUDIO
    TITLE "4:cjc087_2331"
    INDEX 01 03:02:36
  TRACK 95 AUDIO
    TITLE "3:cjc087_2332"
    INDEX 01 03:04:45
  TRACK 96 AUDIO
    TITLE "0:"
    INDEX 01 03:07:06
  TRACK 97 AUDIO
    TITLE "4:cjc087_2333"
    INDEX 01 03:08:04
  TRACK 98 AUDIO
    TITLE "3:cjc087_2334"
    INDEX 01 03:09:52
  TRACK 99 AUDIO
    TITLE "0:"
    INDEX 01 03:12:11
  TRACK 100 AUDIO
    TITLE "4:cjc087_2335"
    INDEX 01 03:13:11
  TRACK 101 AUDIO
    TITLE "3:cjc087_2336"
    INDEX 01 03:15:31
  TRACK 102 AUDIO
    TITLE "0:"
    INDEX 01 03:17:69
  TRACK 103 AUDIO
    TITLE "4:cjc087_2337"
    INDEX 01 03:18:69
  TRACK 104 AUDIO
    TITLE "3:cjc087_2338"
    INDEX 01 03:21:26
  TRACK 105 AUDIO
    TITLE "0:"
    INDEX 01 03:23:66
  TRACK 106 AUDIO
    TITLE "4:cjc087_2339"
    INDEX 01 03:24:63
  TRACK 107 AUDIO
    TITLE "3:cjc087_2340"
    INDEX 01 03:27:15
  TRACK 108 AUDIO
    TITLE "0:"
    INDEX 01 03:29:41
  TRACK 109 AUDIO
    TITLE "5:cjc087_2341"
    INDEX 01 03:31:03
  TRACK 110 AUDIO
    TITLE "0:"
    INDEX 01 03:32:73
  TRACK 111 AUDIO
    TITLE "4:cjc087_2342"
    INDEX 01 03:33:70
  TRACK 112 AUDIO
    TITLE "3:cjc087_2343"
    INDEX 01 03:37:35
  TRACK 113 AUDIO
    TITLE "0:"
    INDEX 01 03:41:38
  TRACK 114 AUDIO
    TITLE "4:cjc087_2344"
    INDEX 01 03:42:38
  TRACK 115 AUDIO
    TITLE "3:cjc087_2345"
    INDEX 01 03:45:09
  TRACK 116 AUDIO
    TITLE "0:"
    INDEX 01 03:47:55
  TRACK 117 AUDIO
    TITLE "4:cjc087_2346"
    INDEX 01 03:48:52
  TRACK 118 AUDIO
    TITLE "3:cjc087_2347"
    INDEX 01 03:51:17
  TRACK 119 AUDIO
    TITLE "0:"
    INDEX 01 03:54:29
  TRACK 120 AUDIO
    TITLE "4:cjc087_2348"
    INDEX 01 03:55:27
  TRACK 121 AUDIO
    TITLE "3:cjc087_2349"
    INDEX 01 03:57:43
  TRACK 122 AUDIO
    TITLE "0:"
    INDEX 01 03:59:56
  TRACK 123 AUDIO
    TITLE "4:cjc087_2350"
    INDEX 01 04:00:53
  TRACK 124 AUDIO
    TITLE "3:cjc087_2351"
    INDEX 01 04:02:05
  TRACK 125 AUDIO
    TITLE "0:"
    INDEX 01 04:05:04
  TRACK 126 AUDIO
    TITLE "4:cjc087_2352"
    INDEX 01 04:06:03
  TRACK 127 AUDIO
    TITLE "3:cjc087_2353"
    INDEX 01 04:07:65
  TRACK 128 AUDIO
    TITLE "0:"
    INDEX 01 04:10:03
  TRACK 129 AUDIO
    TITLE "4:cjc087_2354"
    INDEX 01 04:11:00
  TRACK 130 AUDIO
    TITLE "3:cjc087_2355"
    INDEX 01 04:12:64
  TRACK 131 AUDIO
    TITLE "0:"
    INDEX 01 04:15:35
  TRACK 132 AUDIO
    TITLE "2:cjc087_2356"
    INDEX 01 04:16:70
  TRACK 133 AUDIO
    TITLE "0:"
    INDEX 01 04:28:26
  TRACK 134 AUDIO
    TITLE "5:cjc087_2357"
    INDEX 01 04:29:65
  TRACK 135 AUDIO
    TITLE "0:"
    INDEX 01 04:32:02
  TRACK 136 AUDIO
    TITLE "4:cjc087_2358"
    INDEX 01 04:33:00
  TRACK 137 AUDIO
    TITLE "3:cjc087_2359"
    INDEX 01 04:34:39
  TRACK 138 AUDIO
    TITLE "0:"
    INDEX 01 04:36:06
  TRACK 139 AUDIO
    TITLE "4:cjc087_2360"
    INDEX 01 04:37:00
  TRACK 140 AUDIO
    TITLE "3:cjc087_2361"
    INDEX 01 04:39:51
  TRACK 141 AUDIO
    TITLE "0:"
    INDEX 01 04:42:24
  TRACK 142 AUDIO
    TITLE "4:cjc087_2362"
    INDEX 01 04:43:24
  TRACK 143 AUDIO
    TITLE "3:cjc087_2363"
    INDEX 01 04:45:60
  TRACK 144 AUDIO
    TITLE "0:"
    INDEX 01 04:48:05
  TRACK 145 AUDIO
    TITLE "4:cjc087_2364"
    INDEX 01 04:49:03
  TRACK 146 AUDIO
    TITLE "3:cjc087_2365"
    INDEX 01 04:51:06
  TRACK 147 AUDIO
    TITLE "0:"
    INDEX 01 04:53:05
  TRACK 148 AUDIO
    TITLE "4:cjc087_2366"
    INDEX 01 04:53:73
  TRACK 149 AUDIO
    TITLE "3:cjc087_2367"
    INDEX 01 04:56:30
  TRACK 150 AUDIO
    TITLE "0:"
    INDEX 01 04:58:68
  TRACK 151 AUDIO
    TITLE "4:cjc087_2368"
    INDEX 01 04:59:64
  TRACK 152 AUDIO
    TITLE "3:cjc087_2369"
    INDEX 01 05:02:17
  TRACK 153 AUDIO
    TITLE "0:"
    INDEX 01 05:04:42
  TRACK 154 AUDIO
    TITLE "4:cjc087_2370"
    INDEX 01 05:05:41
  TRACK 155 AUDIO
    TITLE "3:cjc087_2371"
    INDEX 01 05:08:04
  TRACK 156 AUDIO
    TITLE "0:"
    INDEX 01 05:10:60
  TRACK 157 AUDIO
    TITLE "5:cjc087_2372"
    INDEX 01 05:12:20
  TRACK 158 AUDIO
    TITLE "0:"
    INDEX 01 05:14:28
  TRACK 159 AUDIO
    TITLE "4:cjc087_2373"
    INDEX 01 05:15:26
  TRACK 160 AUDIO
    TITLE "3:cjc087_2374"
    INDEX 01 05:17:29
  TRACK 161 AUDIO
    TITLE "0:"
    INDEX 01 05:22:38
  TRACK 162 AUDIO
    TITLE "4:cjc087_2375"
    INDEX 01 05:23:37
  TRACK 163 AUDIO
    TITLE "3:cjc087_2376"
    INDEX 01 05:25:54
  TRACK 164 AUDIO
    TITLE "0:"
    INDEX 01 05:27:68
  TRACK 165 AUDIO
    TITLE "4:cjc087_2377"
    INDEX 01 05:28:68
  TRACK 166 AUDIO
    TITLE "3:cjc087_2378"
    INDEX 01 05:31:42
  TRACK 167 AUDIO
    TITLE "0:"
    INDEX 01 05:34:60
  TRACK 168 AUDIO
    TITLE "4:cjc087_2379"
    INDEX 01 05:35:60
  TRACK 169 AUDIO
    TITLE "3:cjc087_2380"
    INDEX 01 05:37:53
  TRACK 170 AUDIO
    TITLE "0:"
    INDEX 01 05:39:54
  TRACK 171 AUDIO
    TITLE "4:cjc087_2381"
    INDEX 01 05:40:51
  TRACK 172 AUDIO
    TITLE "3:cjc087_2382"
    INDEX 01 05:42:42
  TRACK 173 AUDIO
    TITLE "0:"
    INDEX 01 05:44:69
  TRACK 174 AUDIO
    TITLE "4:cjc087_2383"
    INDEX 01 05:45:62
  TRACK 175 AUDIO
    TITLE "3:cjc087_2384"
    INDEX 01 05:47:51
  TRACK 176 AUDIO
    TITLE "0:"
    INDEX 01 05:50:08
  TRACK 177 AUDIO
    TITLE "4:cjc087_2385"
    INDEX 01 05:51:06
  TRACK 178 AUDIO
    TITLE "3:cjc087_2386"
    INDEX 01 05:53:30
  TRACK 179 AUDIO
    TITLE "0:"
    INDEX 01 05:56:44
  TRACK 180 AUDIO
    TITLE "5:cjc087_2387"
    INDEX 01 05:58:04
  TRACK 181 AUDIO
    TITLE "0:"
    INDEX 01 06:00:09
  TRACK 182 AUDIO
    TITLE "4:cjc087_2388"
    INDEX 01 06:01:04
  TRACK 183 AUDIO
    TITLE "3:cjc087_2389"
    INDEX 01 06:03:15
  TRACK 184 AUDIO
    TITLE "0:"
    INDEX 01 06:05:39
  TRACK 185 AUDIO
    TITLE "4:cjc087_2390"
    INDEX 01 06:06:41
  TRACK 186 AUDIO
    TITLE "3:cjc087_2391"
    INDEX 01 06:08:26
  TRACK 187 AUDIO
    TITLE "0:"
    INDEX 01 06:11:22
  TRACK 188 AUDIO
    TITLE "4:cjc087_2392"
    INDEX 01 06:12:22
  TRACK 189 AUDIO
    TITLE "3:cjc087_2393"
    INDEX 01 06:14:50
  TRACK 190 AUDIO
    TITLE "0:"
    INDEX 01 06:17:17
  TRACK 191 AUDIO
    TITLE "4:cjc087_2394"
    INDEX 01 06:18:15
  TRACK 192 AUDIO
    TITLE "3:cjc087_2395"
    INDEX 01 06:20:60
  TRACK 193 AUDIO
    TITLE "0:"
    INDEX 01 06:23:67
  TRACK 194 AUDIO
    TITLE "4:cjc087_2396"
    INDEX 01 06:24:64
  TRACK 195 AUDIO
    TITLE "3:cjc087_2397"
    INDEX 01 06:27:66
  TRACK 196 AUDIO
    TITLE "0:"
    INDEX 01 06:30:31
  TRACK 197 AUDIO
    TITLE "4:cjc087_2398"
    INDEX 01 06:31:27
  TRACK 198 AUDIO
    TITLE "3:cjc087_2399"
    INDEX 01 06:33:20
  TRACK 199 AUDIO
    TITLE "0:"
    INDEX 01 06:36:26
  TRACK 200 AUDIO
    TITLE "4:cjc087_2400"
    INDEX 01 06:37:22
  TRACK 201 AUDIO
    TITLE "3:cjc087_2401"
    INDEX 01 06:39:11
  TRACK 202 AUDIO
    TITLE "0:"
    INDEX 01 06:41:53
  TRACK 203 AUDIO
    TITLE "5:cjc087_2402"
    INDEX 01 06:43:15
  TRACK 204 AUDIO
    TITLE "0:"
    INDEX 01 06:45:15
  TRACK 205 AUDIO
    TITLE "4:cjc087_2403"
    INDEX 01 06:46:09
  TRACK 206 AUDIO
    TITLE "3:cjc087_2404"
    INDEX 01 06:48:61
  TRACK 207 AUDIO
    TITLE "0:"
    INDEX 01 06:51:51
  TRACK 208 AUDIO
    TITLE "4:cjc087_2405"
    INDEX 01 06:52:51
  TRACK 209 AUDIO
    TITLE "3:cjc087_2406"
    INDEX 01 06:54:67
  TRACK 210 AUDIO
    TITLE "0:"
    INDEX 01 06:57:21
  TRACK 211 AUDIO
    TITLE "4:cjc087_2407"
    INDEX 01 06:58:16
  TRACK 212 AUDIO
    TITLE "3:cjc087_2408"
    INDEX 01 07:01:12
  TRACK 213 AUDIO
    TITLE "0:"
    INDEX 01 07:03:17
  TRACK 214 AUDIO
    TITLE "4:cjc087_2409"
    INDEX 01 07:04:15
  TRACK 215 AUDIO
    TITLE "3:cjc087_2410"
    INDEX 01 07:06:16
  TRACK 216 AUDIO
    TITLE "0:"
    INDEX 01 07:09:00
  TRACK 217 AUDIO
    TITLE "4:cjc087_2411"
    INDEX 01 07:09:73
  TRACK 218 AUDIO
    TITLE "3:cjc087_2412"
    INDEX 01 07:12:02
  TRACK 219 AUDIO
    TITLE "0:"
    INDEX 01 07:14:48
  TRACK 220 AUDIO
    TITLE "4:cjc087_2413"
    INDEX 01 07:15:46
  TRACK 221 AUDIO
    TITLE "3:cjc087_2414"
    INDEX 01 07:18:52
  TRACK 222 AUDIO
    TITLE "0:"
    INDEX 01 07:21:58
  TRACK 223 AUDIO
    TITLE "5:cjc087_2415"
    INDEX 01 07:23:20
  TRACK 224 AUDIO
    TITLE "0:"
    INDEX 01 07:25:27
  TRACK 225 AUDIO
    TITLE "4:cjc087_2416"
    INDEX 01 07:26:24
  TRACK 226 AUDIO
    TITLE "3:cjc087_2417"
    INDEX 01 07:29:66
  TRACK 227 AUDIO
    TITLE "0:"
    INDEX 01 07:33:73
  TRACK 228 AUDIO
    TITLE "4:cjc087_2418"
    INDEX 01 07:34:71
  TRACK 229 AUDIO
    TITLE "3:cjc087_2419"
    INDEX 01 07:37:71
  TRACK 230 AUDIO
    TITLE "0:"
    INDEX 01 07:40:48
  TRACK 231 AUDIO
    TITLE "4:cjc087_2420"
    INDEX 01 07:41:47
  TRACK 232 AUDIO
    TITLE "3:cjc087_2421"
    INDEX 01 07:44:24
  TRACK 233 AUDIO
    TITLE "0:"
    INDEX 01 07:47:38
  TRACK 234 AUDIO
    TITLE "4:cjc087_2422"
    INDEX 01 07:48:36
  TRACK 235 AUDIO
    TITLE "3:cjc087_2423"
    INDEX 01 07:51:04
  TRACK 236 AUDIO
    TITLE "0:"
    INDEX 01 07:54:50
  TRACK 237 AUDIO
    TITLE "4:cjc087_2424"
    INDEX 01 07:55:49
  TRACK 238 AUDIO
    TITLE "3:cjc087_2425"
    INDEX 01 07:57:34
  TRACK 239 AUDIO
    TITLE "0:"
    INDEX 01 07:59:71
  TRACK 240 AUDIO
    TITLE "4:cjc087_2426"
    INDEX 01 08:00:68
  TRACK 241 AUDIO
    TITLE "3:cjc087_2427"
    INDEX 01 08:03:10
  TRACK 242 AUDIO
    TITLE "0:"
    INDEX 01 08:05:36
  TRACK 243 AUDIO
    TITLE "4:cjc087_2428"
    INDEX 01 08:06:33
  TRACK 244 AUDIO
    TITLE "3:cjc087_2429"
    INDEX 01 08:08:38
  TRACK 245 AUDIO
    TITLE "0:"
    INDEX 01 08:11:07
  TRACK 246 AUDIO
    TITLE "5:cjc087_2430"
    INDEX 01 08:12:44
  TRACK 247 AUDIO
    TITLE "0:"
    INDEX 01 08:14:58
  TRACK 248 AUDIO
    TITLE "4:cjc087_2431"
    INDEX 01 08:15:56
  TRACK 249 AUDIO
    TITLE "3:cjc087_2432"
    INDEX 01 08:18:19
  TRACK 250 AUDIO
    TITLE "0:"
    INDEX 01 08:21:06
  TRACK 251 AUDIO
    TITLE "4:cjc087_2433"
    INDEX 01 08:22:03
  TRACK 252 AUDIO
    TITLE "3:cjc087_2434"
    INDEX 01 08:23:71
  TRACK 253 AUDIO
    TITLE "0:"
    INDEX 01 08:26:44
  TRACK 254 AUDIO
    TITLE "4:cjc087_2435"
    INDEX 01 08:27:41
  TRACK 255 AUDIO
    TITLE "3:cjc087_2436"
    INDEX 01 08:29:33
  TRACK 256 AUDIO
    TITLE "0:"
    INDEX 01 08:31:47
  TRACK 257 AUDIO
    TITLE "4:cjc087_2437"
    INDEX 01 08:32:45
  TRACK 258 AUDIO
    TITLE "3:cjc087_2438"
    INDEX 01 08:35:00
  TRACK 259 AUDIO
    TITLE "0:"
    INDEX 01 08:37:54
  TRACK 260 AUDIO
    TITLE "4:cjc087_2439"
    INDEX 01 08:38:53
  TRACK 261 AUDIO
    TITLE "3:cjc087_2440"
    INDEX 01 08:40:70
  TRACK 262 AUDIO
    TITLE "0:"
    INDEX 01 08:43:35
  TRACK 263 AUDIO
    TITLE "4:cjc087_2441"
    INDEX 01 08:44:34
  TRACK 264 AUDIO
    TITLE "3:cjc087_2442"
    INDEX 01 08:46:04
  TRACK 265 AUDIO
    TITLE "0:"
    INDEX 01 08:48:20
  TRACK 266 AUDIO
    TITLE "2:cjc087_2443"
    INDEX 01 08:49:55
  TRACK 267 AUDIO
    TITLE "0:"
    INDEX 01 09:01:33
  TRACK 268 AUDIO
    TITLE "5:cjc087_2444"
    INDEX 01 09:02:73
  TRACK 269 AUDIO
    TITLE "0:"
    INDEX 01 09:05:09
  TRACK 270 AUDIO
    TITLE "4:cjc087_2445"
    INDEX 01 09:06:06
  TRACK 271 AUDIO
    TITLE "3:cjc087_2446"
    INDEX 01 09:08:29
  TRACK 272 AUDIO
    TITLE "0:"
    INDEX 01 09:10:00
  TRACK 273 AUDIO
    TITLE "4:cjc087_2447"
    INDEX 01 09:11:11
  TRACK 274 AUDIO
    TITLE "3:cjc087_2448"
    INDEX 01 09:13:08
  TRACK 275 AUDIO
    TITLE "0:"
    INDEX 01 09:15:64
  TRACK 276 AUDIO
    TITLE "4:cjc087_2449"
    INDEX 01 09:16:61
  TRACK 277 AUDIO
    TITLE "3:cjc087_2450"
    INDEX 01 09:18:70
  TRACK 278 AUDIO
    TITLE "0:"
    INDEX 01 09:20:73
  TRACK 279 AUDIO
    TITLE "4:cjc087_2451"
    INDEX 01 09:21:67
  TRACK 280 AUDIO
    TITLE "3:cjc087_2452"
    INDEX 01 09:23:67
  TRACK 281 AUDIO
    TITLE "0:"
    INDEX 01 09:26:05
  TRACK 282 AUDIO
    TITLE "4:cjc087_2453"
    INDEX 01 09:27:03
  TRACK 283 AUDIO
    TITLE "3:cjc087_2454"
    INDEX 01 09:30:56
  TRACK 284 AUDIO
    TITLE "0:"
    INDEX 01 09:33:33
  TRACK 285 AUDIO
    TITLE "4:cjc087_2455"
    INDEX 01 09:34:30
  TRACK 286 AUDIO
    TITLE "3:cjc087_2456"
    INDEX 01 09:36:39
  TRACK 287 AUDIO
    TITLE "0:"
    INDEX 01 09:39:49
  TRACK 288 AUDIO
    TITLE "4:cjc087_2457"
    INDEX 01 09:40:48
  TRACK 289 AUDIO
    TITLE "3:cjc087_2458"
    INDEX 01 09:43:05
  TRACK 290 AUDIO
    TITLE "0:"
    INDEX 01 09:45:63
  TRACK 291 AUDIO
    TITLE "5:cjc087_2459"
    INDEX 01 09:47:23
  TRACK 292 AUDIO
    TITLE "0:"
    INDEX 01 09:49:37
  TRACK 293 AUDIO
    TITLE "4:cjc087_2460"
    INDEX 01 09:50:29
  TRACK 294 AUDIO
    TITLE "3:cjc087_2461"
    INDEX 01 09:53:21
  TRACK 295 AUDIO
    TITLE "0:"
    INDEX 01 09:55:52
  TRACK 296 AUDIO
    TITLE "4:cjc087_2462"
    INDEX 01 09:56:49
  TRACK 297 AUDIO
    TITLE "3:cjc087_2463"
    INDEX 01 09:58:40
  TRACK 298 AUDIO
    TITLE "0:"
    INDEX 01 10:00:12
  TRACK 299 AUDIO
    TITLE "4:cjc087_2464"
    INDEX 01 10:01:05
  TRACK 300 AUDIO
    TITLE "3:cjc087_2465"
    INDEX 01 10:03:02
  TRACK 301 AUDIO
    TITLE "0:"
    INDEX 01 10:04:64
  TRACK 302 AUDIO
    TITLE "4:cjc087_2466"
    INDEX 01 10:05:62
  TRACK 303 AUDIO
    TITLE "3:cjc087_2467"
    INDEX 01 10:07:53
  TRACK 304 AUDIO
    TITLE "0:"
    INDEX 01 10:09:46
  TRACK 305 AUDIO
    TITLE "4:cjc087_2468"
    INDEX 01 10:10:47
  TRACK 306 AUDIO
    TITLE "3:cjc087_2469"
    INDEX 01 10:12:36
  TRACK 307 AUDIO
    TITLE "0:"
    INDEX 01 10:15:37
  TRACK 308 AUDIO
    TITLE "4:cjc087_2470"
    INDEX 01 10:16:36
  TRACK 309 AUDIO
    TITLE "3:cjc087_2471"
    INDEX 01 10:18:25
  TRACK 310 AUDIO
    TITLE "0:"
    INDEX 01 10:20:09
  TRACK 311 AUDIO
    TITLE "4:cjc087_2472"
    INDEX 01 10:21:06
  TRACK 312 AUDIO
    TITLE "3:cjc087_2473"
    INDEX 01 10:22:45
  TRACK 313 AUDIO
    TITLE "0:"
    INDEX 01 10:24:26
  TRACK 314 AUDIO
    TITLE "4:cjc087_2474"
    INDEX 01 10:25:27
  TRACK 315 AUDIO
    TITLE "3:cjc087_2475"
    INDEX 01 10:28:47
  TRACK 316 AUDIO
    TITLE "0:"
    INDEX 01 10:30:64
  TRACK 317 AUDIO
    TITLE "5:cjc087_2476"
    INDEX 01 10:32:25
  TRACK 318 AUDIO
    TITLE "0:"
    INDEX 01 10:34:50
  TRACK 319 AUDIO
    TITLE "4:cjc087_2477"
    INDEX 01 10:35:43
  TRACK 320 AUDIO
    TITLE "3:cjc087_2478"
    INDEX 01 10:38:44
  TRACK 321 AUDIO
    TITLE "0:"
    INDEX 01 10:41:34
  TRACK 322 AUDIO
    TITLE "4:cjc087_2479"
    INDEX 01 10:42:34
  TRACK 323 AUDIO
    TITLE "3:cjc087_2480"
    INDEX 01 10:45:09
  TRACK 324 AUDIO
    TITLE "0:"
    INDEX 01 10:47:70
  TRACK 325 AUDIO
    TITLE "4:cjc087_2481"
    INDEX 01 10:48:68
  TRACK 326 AUDIO
    TITLE "3:cjc087_2482"
    INDEX 01 10:51:33
  TRACK 327 AUDIO
    TITLE "0:"
    INDEX 01 10:54:04
  TRACK 328 AUDIO
    TITLE "4:cjc087_2483"
    INDEX 01 10:55:01
  TRACK 329 AUDIO
    TITLE "3:cjc087_2484"
    INDEX 01 10:57:57
  TRACK 330 AUDIO
    TITLE "0:"
    INDEX 01 11:00:36
  TRACK 331 AUDIO
    TITLE "4:cjc087_2485"
    INDEX 01 11:01:35
  TRACK 332 AUDIO
    TITLE "3:cjc087_2486"
    INDEX 01 11:05:01
  TRACK 333 AUDIO
    TITLE "0:"
    INDEX 01 11:08:37
  TRACK 334 AUDIO
    TITLE "4:cjc087_2487"
    INDEX 01 11:09:33
  TRACK 335 AUDIO
    TITLE "3:cjc087_2488"
    INDEX 01 11:10:71
  TRACK 336 AUDIO
    TITLE "0:"
    INDEX 01 11:13:22
  TRACK 337 AUDIO
    TITLE "5:cjc087_2489"
    INDEX 01 11:14:59
  TRACK 338 AUDIO
    TITLE "0:"
    INDEX 01 11:16:54
  TRACK 339 AUDIO
    TITLE "3:cjc087_2490"
    INDEX 01 11:17:54
  TRACK 340 AUDIO
    TITLE "4:cjc087_2491"
    INDEX 01 11:22:02
  TRACK 341 AUDIO
    TITLE "0:"
    INDEX 01 11:25:20
  TRACK 342 AUDIO
    TITLE "3:cjc087_2492"
    INDEX 01 11:26:15
  TRACK 343 AUDIO
    TITLE "4:cjc087_2493"
    INDEX 01 11:28:67
  TRACK 344 AUDIO
    TITLE "0:"
    INDEX 01 11:32:08
  TRACK 345 AUDIO
    TITLE "3:cjc087_2494"
    INDEX 01 11:33:06
  TRACK 346 AUDIO
    TITLE "4:cjc087_2495"
    INDEX 01 11:35:59
  TRACK 347 AUDIO
    TITLE "0:"
    INDEX 01 11:38:64
  TRACK 348 AUDIO
    TITLE "3:cjc087_2496"
    INDEX 01 11:39:61
  TRACK 349 AUDIO
    TITLE "4:cjc087_2497"
    INDEX 01 11:42:34
  TRACK 350 AUDIO
    TITLE "0:"
    INDEX 01 11:45:07
  TRACK 351 AUDIO
    TITLE "3:cjc087_2498"
    INDEX 01 11:46:06
  TRACK 352 AUDIO
    TITLE "4:cjc087_2499"
    INDEX 01 11:49:50
  TRACK 353 AUDIO
    TITLE "0:"
    INDEX 01 11:55:03
  TRACK 354 AUDIO
    TITLE "5:cjc087_2500"
    INDEX 01 11:56:38
  TRACK 355 AUDIO
    TITLE "0:"
    INDEX 01 11:58:53
  TRACK 356 AUDIO
    TITLE "4:cjc087_2501"
    INDEX 01 11:59:52
  TRACK 357 AUDIO
    TITLE "3:cjc087_2502"
    INDEX 01 12:01:69
  TRACK 358 AUDIO
    TITLE "0:"
    INDEX 01 12:04:26
  TRACK 359 AUDIO
    TITLE "4:cjc087_2503"
    INDEX 01 12:05:23
  TRACK 360 AUDIO
    TITLE "3:cjc087_2504"
    INDEX 01 12:08:10
  TRACK 361 AUDIO
    TITLE "0:"
    INDEX 01 12:11:57
  TRACK 362 AUDIO
    TITLE "4:cjc087_2505"
    INDEX 01 12:12:53
  TRACK 363 AUDIO
    TITLE "3:cjc087_2506"
    INDEX 01 12:15:55
  TRACK 364 AUDIO
    TITLE "0:"
    INDEX 01 12:19:27
  TRACK 365 AUDIO
    TITLE "4:cjc087_2507"
    INDEX 01 12:20:25
  TRACK 366 AUDIO
    TITLE "3:cjc087_2508"
    INDEX 01 12:22:51
  TRACK 367 AUDIO
    TITLE "0:"
    INDEX 01 12:26:19
  TRACK 368 AUDIO
    TITLE "4:cjc087_2509"
    INDEX 01 12:27:17
  TRACK 369 AUDIO
    TITLE "3:cjc087_2510"
    INDEX 01 12:29:73
  TRACK 370 AUDIO
    TITLE "0:"
    INDEX 01 12:32:30
  TRACK 371 AUDIO
    TITLE "4:cjc087_2511"
    INDEX 01 12:33:29
  TRACK 372 AUDIO
    TITLE "3:cjc087_2512"
    INDEX 01 12:36:06
  TRACK 373 AUDIO
    TITLE "0:"
    INDEX 01 12:39:38
  TRACK 374 AUDIO
    TITLE "5:cjc087_2513"
    INDEX 01 12:40:72
  TRACK 375 AUDIO
    TITLE "0:"
    INDEX 01 12:43:10
  TRACK 376 AUDIO
    TITLE "4:cjc087_2514"
    INDEX 01 12:44:10
  TRACK 377 AUDIO
    TITLE "3:cjc087_2515"
    INDEX 01 12:46:65
  TRACK 378 AUDIO
    TITLE "0:"
    INDEX 01 12:49:40
  TRACK 379 AUDIO
    TITLE "4:cjc087_2516"
    INDEX 01 12:50:40
  TRACK 380 AUDIO
    TITLE "3:cjc087_2517"
    INDEX 01 12:52:15
  TRACK 381 AUDIO
    TITLE "0:"
    INDEX 01 12:54:16
  TRACK 382 AUDIO
    TITLE "4:cjc087_2518"
    INDEX 01 12:55:19
  TRACK 383 AUDIO
    TITLE "3:cjc087_2519"
    INDEX 01 12:57:32
  TRACK 384 AUDIO
    TITLE "0:"
    INDEX 01 12:59:52
  TRACK 385 AUDIO
    TITLE "4:cjc087_2520"
    INDEX 01 13:00:52
  TRACK 386 AUDIO
    TITLE "3:cjc087_2521"
    INDEX 01 13:02:66
  TRACK 387 AUDIO
    TITLE "0:"
    INDEX 01 13:05:39
  TRACK 388 AUDIO
    TITLE "4:cjc087_2522"
    INDEX 01 13:06:37
  TRACK 389 AUDIO
    TITLE "3:cjc087_2523"
    INDEX 01 13:08:55
  TRACK 390 AUDIO
    TITLE "0:"
    INDEX 01 13:11:26
  TRACK 391 AUDIO
    TITLE "4:cjc087_2524"
    INDEX 01 13:12:25
  TRACK 392 AUDIO
    TITLE "3:cjc087_2525"
    INDEX 01 13:14:69
  TRACK 393 AUDIO
    TITLE "0:"
    INDEX 01 13:17:38
  TRACK 394 AUDIO
    TITLE "4:cjc087_2526"
    INDEX 01 13:18:36
  TRACK 395 AUDIO
    TITLE "3:cjc087_2527"
    INDEX 01 13:21:24
  TRACK 396 AUDIO
    TITLE "0:"
    INDEX 01 13:23:72
  TRACK 397 AUDIO
    TITLE "2:cjc087_2528"
    INDEX 01 13:25:36
  TRACK 398 AUDIO
    TITLE "0:"
    INDEX 01 13:39:15
  TRACK 399 AUDIO
    TITLE "5:cjc087_2529"
    INDEX 01 13:40:55
  TRACK 400 AUDIO
    TITLE "0:"
    INDEX 01 13:42:66
  TRACK 401 AUDIO
    TITLE "4:cjc087_2530"
    INDEX 01 13:43:61
  TRACK 402 AUDIO
    TITLE "3:cjc087_2531"
    INDEX 01 13:45:50
  TRACK 403 AUDIO
    TITLE "0:"
    INDEX 01 13:48:17
  TRACK 404 AUDIO
    TITLE "4:cjc087_2532"
    INDEX 01 13:49:13
  TRACK 405 AUDIO
    TITLE "3:cjc087_2533"
    INDEX 01 13:51:31
  TRACK 406 AUDIO
    TITLE "0:"
    INDEX 01 13:53:73
  TRACK 407 AUDIO
    TITLE "4:cjc087_2534"
    INDEX 01 13:54:73
  TRACK 408 AUDIO
    TITLE "3:cjc087_2535"
    INDEX 01 13:56:52
  TRACK 409 AUDIO
    TITLE "0:"
    INDEX 01 13:58:53
  TRACK 410 AUDIO
    TITLE "4:cjc087_2536"
    INDEX 01 13:59:52
  TRACK 411 AUDIO
    TITLE "3:cjc087_2537"
    INDEX 01 14:01:73
  TRACK 412 AUDIO
    TITLE "0:"
    INDEX 01 14:04:14
  TRACK 413 AUDIO
    TITLE "4:cjc087_2538"
    INDEX 01 14:05:12
  TRACK 414 AUDIO
    TITLE "3:cjc087_2539"
    INDEX 01 14:07:27
  TRACK 415 AUDIO
    TITLE "0:"
    INDEX 01 14:09:18
  TRACK 416 AUDIO
    TITLE "4:cjc087_2540"
    INDEX 01 14:10:27
  TRACK 417 AUDIO
    TITLE "3:cjc087_2541"
    INDEX 01 14:13:00
  TRACK 418 AUDIO
    TITLE "0:"
    INDEX 01 14:16:27
  TRACK 419 AUDIO
    TITLE "4:cjc087_2542"
    INDEX 01 14:17:21
  TRACK 420 AUDIO
    TITLE "3:cjc087_2543"
    INDEX 01 14:19:22
  TRACK 421 AUDIO
    TITLE "0:"
    INDEX 01 14:21:38
  TRACK 422 AUDIO
    TITLE "5:cjc087_2544"
    INDEX 01 14:22:73
  TRACK 423 AUDIO
    TITLE "0:"
    INDEX 01 14:25:09
  TRACK 424 AUDIO
    TITLE "4:cjc087_2545"
    INDEX 01 14:26:06
  TRACK 425 AUDIO
    TITLE "3:cjc087_2546"
    INDEX 01 14:28:15
  TRACK 426 AUDIO
    TITLE "0:"
    INDEX 01 14:31:09
  TRACK 427 AUDIO
    TITLE "4:cjc087_2547"
    INDEX 01 14:32:05
  TRACK 428 AUDIO
    TITLE "3:cjc087_2548"
    INDEX 01 14:33:69
  TRACK 429 AUDIO
    TITLE "0:"
    INDEX 01 14:35:68
  TRACK 430 AUDIO
    TITLE "4:cjc087_2549"
    INDEX 01 14:36:65
  TRACK 431 AUDIO
    TITLE "3:cjc087_2550"
    INDEX 01 14:39:50
  TRACK 432 AUDIO
    TITLE "0:"
    INDEX 01 14:42:58
  TRACK 433 AUDIO
    TITLE "4:cjc087_2551"
    INDEX 01 14:43:58
  TRACK 434 AUDIO
    TITLE "3:cjc087_2552"
    INDEX 01 14:45:70
  TRACK 435 AUDIO
    TITLE "0:"
    INDEX 01 14:48:53
  TRACK 436 AUDIO
    TITLE "4:cjc087_2553"
    INDEX 01 14:49:64
  TRACK 437 AUDIO
    TITLE "3:cjc087_2554"
    INDEX 01 14:51:28
  TRACK 438 AUDIO
    TITLE "0:"
    INDEX 01 14:53:23
  TRACK 439 AUDIO
    TITLE "4:cjc087_2555"
    INDEX 01 14:54:22
  TRACK 440 AUDIO
    TITLE "3:cjc087_2556"
    INDEX 01 14:56:25
  TRACK 441 AUDIO
    TITLE "0:"
    INDEX 01 14:58:42
  TRACK 442 AUDIO
    TITLE "4:cjc087_2557"
    INDEX 01 14:59:35
  TRACK 443 AUDIO
    TITLE "3:cjc087_2558"
    INDEX 01 15:01:18
  TRACK 444 AUDIO
    TITLE "0:"
    INDEX 01 15:03:31
  TRACK 445 AUDIO
    TITLE "5:cjc087_2559"
    INDEX 01 15:04:66
  TRACK 446 AUDIO
    TITLE "0:"
    INDEX 01 15:06:70
  TRACK 447 AUDIO
    TITLE "4:cjc087_2560"
    INDEX 01 15:07:66
  TRACK 448 AUDIO
    TITLE "3:cjc087_2561"
    INDEX 01 15:10:07
  TRACK 449 AUDIO
    TITLE "0:"
    INDEX 01 15:12:18
  TRACK 450 AUDIO
    TITLE "4:cjc087_2562"
    INDEX 01 15:13:18
  TRACK 451 AUDIO
    TITLE "3:cjc087_2563"
    INDEX 01 15:15:20
  TRACK 452 AUDIO
    TITLE "0:"
    INDEX 01 15:17:15
  TRACK 453 AUDIO
    TITLE "4:cjc087_2564"
    INDEX 01 15:18:13
  TRACK 454 AUDIO
    TITLE "3:cjc087_2565"
    INDEX 01 15:20:35
  TRACK 455 AUDIO
    TITLE "0:"
    INDEX 01 15:22:71
  TRACK 456 AUDIO
    TITLE "4:cjc087_2566"
    INDEX 01 15:23:71
  TRACK 457 AUDIO
    TITLE "3:cjc087_2567"
    INDEX 01 15:25:70
  TRACK 458 AUDIO
    TITLE "0:"
    INDEX 01 15:28:17
  TRACK 459 AUDIO
    TITLE "4:cjc087_2568"
    INDEX 01 15:29:15
  TRACK 460 AUDIO
    TITLE "3:cjc087_2569"
    INDEX 01 15:31:08
  TRACK 461 AUDIO
    TITLE "0:"
    INDEX 01 15:33:36
  TRACK 462 AUDIO
    TITLE "4:cjc087_2570"
    INDEX 01 15:34:31
  TRACK 463 AUDIO
    TITLE "3:cjc087_2571"
    INDEX 01 15:36:36
  TRACK 464 AUDIO
    TITLE "0:"
    INDEX 01 15:38:47
  TRACK 465 AUDIO
    TITLE "4:cjc087_2572"
    INDEX 01 15:39:42
  TRACK 466 AUDIO
    TITLE "3:cjc087_2573"
    INDEX 01 15:41:41
  TRACK 467 AUDIO
    TITLE "0:"
    INDEX 01 15:44:06
  TRACK 468 AUDIO
    TITLE "4:cjc087_2574"
    INDEX 01 15:45:04
  TRACK 469 AUDIO
    TITLE "3:cjc087_2575"
    INDEX 01 15:46:42
  TRACK 470 AUDIO
    TITLE "0:"
    INDEX 01 15:48:34
  TRACK 471 AUDIO
    TITLE "5:cjc087_2576"
    INDEX 01 15:49:68
  TRACK 472 AUDIO
    TITLE "0:"
    INDEX 01 15:52:10
  TRACK 473 AUDIO
    TITLE "3:cjc087_2577"
    INDEX 01 15:53:01
  TRACK 474 AUDIO
    TITLE "4:cjc087_2578"
    INDEX 01 15:55:02
  TRACK 475 AUDIO
    TITLE "0:"
    INDEX 01 15:56:53
  TRACK 476 AUDIO
    TITLE "3:cjc087_2579"
    INDEX 01 15:57:50
  TRACK 477 AUDIO
    TITLE "4:cjc087_2580"
    INDEX 01 15:59:43
  TRACK 478 AUDIO
    TITLE "0:"
    INDEX 01 16:01:60
  TRACK 479 AUDIO
    TITLE "3:cjc087_2581"
    INDEX 01 16:02:55
  TRACK 480 AUDIO
    TITLE "4:cjc087_2582"
    INDEX 01 16:05:71
  TRACK 481 AUDIO
    TITLE "0:"
    INDEX 01 16:08:48
  TRACK 482 AUDIO
    TITLE "3:cjc087_2583"
    INDEX 01 16:09:47
  TRACK 483 AUDIO
    TITLE "4:cjc087_2584"
    INDEX 01 16:12:05
  TRACK 484 AUDIO
    TITLE "0:"
    INDEX 01 16:14:70
  TRACK 485 AUDIO
    TITLE "3:cjc087_2585"
    INDEX 01 16:15:70
  TRACK 486 AUDIO
    TITLE "4:cjc087_2586"
    INDEX 01 16:20:24
  TRACK 487 AUDIO
    TITLE "0:"
    INDEX 01 16:24:00
